<svg height="2094" width="720" xmlns="http://www.w3.org/2000/svg">
<rect height="2094" fill="#555" width="720"></rect>
<text fill="#7f7" font-family="Courier New" font-size="12" xml:space="preserve">
<tspan x="10" y="26">7 megabytes installed</tspan>
<tspan x="10" y="42"></tspan>
<tspan x="10" y="58">node_modules</tspan>
<tspan x="10" y="74">└─┬ stylint@1.5.9 </tspan>
<tspan x="10" y="90">  ├── async@1.5.2 </tspan>
<tspan x="10" y="106">  ├─┬ chalk@1.1.3 </tspan>
<tspan x="10" y="122">  │ ├── ansi-styles@2.2.1 </tspan>
<tspan x="10" y="138">  │ ├── escape-string-regexp@1.0.5 </tspan>
<tspan x="10" y="154">  │ ├─┬ has-ansi@2.0.0 </tspan>
<tspan x="10" y="170">  │ │ └── ansi-regex@2.1.1 </tspan>
<tspan x="10" y="186">  │ ├── strip-ansi@3.0.1 </tspan>
<tspan x="10" y="202">  │ └── supports-color@2.0.0 </tspan>
<tspan x="10" y="218">  ├─┬ chokidar@1.5.2 </tspan>
<tspan x="10" y="234">  │ ├─┬ anymatch@1.3.0 </tspan>
<tspan x="10" y="250">  │ │ ├── arrify@1.0.1 </tspan>
<tspan x="10" y="266">  │ │ └─┬ micromatch@2.3.11 </tspan>
<tspan x="10" y="282">  │ │   ├─┬ arr-diff@2.0.0 </tspan>
<tspan x="10" y="298">  │ │   │ └── arr-flatten@1.0.3 </tspan>
<tspan x="10" y="314">  │ │   ├── array-unique@0.2.1 </tspan>
<tspan x="10" y="330">  │ │   ├─┬ braces@1.8.5 </tspan>
<tspan x="10" y="346">  │ │   │ ├─┬ expand-range@1.8.2 </tspan>
<tspan x="10" y="362">  │ │   │ │ └─┬ fill-range@2.2.3 </tspan>
<tspan x="10" y="378">  │ │   │ │   ├── is-number@2.1.0 </tspan>
<tspan x="10" y="394">  │ │   │ │   ├── isobject@2.1.0 </tspan>
<tspan x="10" y="410">  │ │   │ │   ├── randomatic@1.1.6 </tspan>
<tspan x="10" y="426">  │ │   │ │   └── repeat-string@1.6.1 </tspan>
<tspan x="10" y="442">  │ │   │ ├── preserve@0.2.0 </tspan>
<tspan x="10" y="458">  │ │   │ └── repeat-element@1.1.2 </tspan>
<tspan x="10" y="474">  │ │   ├─┬ expand-brackets@0.1.5 </tspan>
<tspan x="10" y="490">  │ │   │ └── is-posix-bracket@0.1.1 </tspan>
<tspan x="10" y="506">  │ │   ├── extglob@0.3.2 </tspan>
<tspan x="10" y="522">  │ │   ├── filename-regex@2.0.0 </tspan>
<tspan x="10" y="538">  │ │   ├─┬ kind-of@3.1.0 </tspan>
<tspan x="10" y="554">  │ │   │ └── is-buffer@1.1.5 </tspan>
<tspan x="10" y="570">  │ │   ├─┬ normalize-path@2.1.1 </tspan>
<tspan x="10" y="586">  │ │   │ └── remove-trailing-separator@1.0.1 </tspan>
<tspan x="10" y="602">  │ │   ├─┬ object.omit@2.0.1 </tspan>
<tspan x="10" y="618">  │ │   │ ├─┬ for-own@0.1.5 </tspan>
<tspan x="10" y="634">  │ │   │ │ └── for-in@1.0.2 </tspan>
<tspan x="10" y="650">  │ │   │ └── is-extendable@0.1.1 </tspan>
<tspan x="10" y="666">  │ │   ├─┬ parse-glob@3.0.4 </tspan>
<tspan x="10" y="682">  │ │   │ ├── glob-base@0.3.0 </tspan>
<tspan x="10" y="698">  │ │   │ └── is-dotfile@1.0.2 </tspan>
<tspan x="10" y="714">  │ │   └─┬ regex-cache@0.4.3 </tspan>
<tspan x="10" y="730">  │ │     ├── is-equal-shallow@0.1.3 </tspan>
<tspan x="10" y="746">  │ │     └── is-primitive@2.0.0 </tspan>
<tspan x="10" y="762">  │ ├── async-each@1.0.1 </tspan>
<tspan x="10" y="778">  │ ├── glob-parent@2.0.0 </tspan>
<tspan x="10" y="794">  │ ├── inherits@2.0.3 </tspan>
<tspan x="10" y="810">  │ ├─┬ is-binary-path@1.0.1 </tspan>
<tspan x="10" y="826">  │ │ └── binary-extensions@1.8.0 </tspan>
<tspan x="10" y="842">  │ ├─┬ is-glob@2.0.1 </tspan>
<tspan x="10" y="858">  │ │ └── is-extglob@1.0.0 </tspan>
<tspan x="10" y="874">  │ └─┬ readdirp@2.1.0 </tspan>
<tspan x="10" y="890">  │   ├── graceful-fs@4.1.11 </tspan>
<tspan x="10" y="906">  │   ├─┬ readable-stream@2.2.9 </tspan>
<tspan x="10" y="922">  │   │ ├── buffer-shims@1.0.0 </tspan>
<tspan x="10" y="938">  │   │ ├── core-util-is@1.0.2 </tspan>
<tspan x="10" y="954">  │   │ ├── isarray@1.0.0 </tspan>
<tspan x="10" y="970">  │   │ ├── process-nextick-args@1.0.7 </tspan>
<tspan x="10" y="986">  │   │ ├── string_decoder@1.0.0 </tspan>
<tspan x="10" y="1002">  │   │ └── util-deprecate@1.0.2 </tspan>
<tspan x="10" y="1018">  │   └── set-immediate-shim@1.0.1 </tspan>
<tspan x="10" y="1034">  ├─┬ columnify@1.5.4 </tspan>
<tspan x="10" y="1050">  │ └─┬ wcwidth@1.0.1 </tspan>
<tspan x="10" y="1066">  │   └─┬ defaults@1.0.3 </tspan>
<tspan x="10" y="1082">  │     └── clone@1.0.2 </tspan>
<tspan x="10" y="1098">  ├─┬ glob@7.0.4 </tspan>
<tspan x="10" y="1114">  │ ├── fs.realpath@1.0.0 </tspan>
<tspan x="10" y="1130">  │ ├─┬ inflight@1.0.6 </tspan>
<tspan x="10" y="1146">  │ │ └── wrappy@1.0.2 </tspan>
<tspan x="10" y="1162">  │ ├─┬ minimatch@3.0.3 </tspan>
<tspan x="10" y="1178">  │ │ └─┬ brace-expansion@1.1.7 </tspan>
<tspan x="10" y="1194">  │ │   ├── balanced-match@0.4.2 </tspan>
<tspan x="10" y="1210">  │ │   └── concat-map@0.0.1 </tspan>
<tspan x="10" y="1226">  │ └── once@1.4.0 </tspan>
<tspan x="10" y="1242">  ├─┬ lodash.defaults@4.0.1 </tspan>
<tspan x="10" y="1258">  │ ├── lodash.assigninwith@4.2.0 </tspan>
<tspan x="10" y="1274">  │ └── lodash.rest@4.0.5 </tspan>
<tspan x="10" y="1290">  ├── path-is-absolute@1.0.0 </tspan>
<tspan x="10" y="1306">  ├─┬ stampit@1.2.0 </tspan>
<tspan x="10" y="1322">  │ └── mout@0.5.0 </tspan>
<tspan x="10" y="1338">  ├── strip-json-comments@2.0.1 </tspan>
<tspan x="10" y="1354">  ├─┬ user-home@2.0.0 </tspan>
<tspan x="10" y="1370">  │ └── os-homedir@1.0.2 </tspan>
<tspan x="10" y="1386">  └─┬ yargs@4.7.1 </tspan>
<tspan x="10" y="1402">    ├── camelcase@3.0.0 </tspan>
<tspan x="10" y="1418">    ├─┬ cliui@3.2.0 </tspan>
<tspan x="10" y="1434">    │ └── wrap-ansi@2.1.0 </tspan>
<tspan x="10" y="1450">    ├── decamelize@1.2.0 </tspan>
<tspan x="10" y="1466">    ├── lodash.assign@4.2.0 </tspan>
<tspan x="10" y="1482">    ├─┬ os-locale@1.4.0 </tspan>
<tspan x="10" y="1498">    │ └─┬ lcid@1.0.0 </tspan>
<tspan x="10" y="1514">    │   └── invert-kv@1.0.0 </tspan>
<tspan x="10" y="1530">    ├─┬ pkg-conf@1.1.3 </tspan>
<tspan x="10" y="1546">    │ ├─┬ find-up@1.1.2 </tspan>
<tspan x="10" y="1562">    │ │ ├── path-exists@2.1.0 </tspan>
<tspan x="10" y="1578">    │ │ └─┬ pinkie-promise@2.0.1 </tspan>
<tspan x="10" y="1594">    │ │   └── pinkie@2.0.4 </tspan>
<tspan x="10" y="1610">    │ ├─┬ load-json-file@1.1.0 </tspan>
<tspan x="10" y="1626">    │ │ ├─┬ parse-json@2.2.0 </tspan>
<tspan x="10" y="1642">    │ │ │ └─┬ error-ex@1.3.1 </tspan>
<tspan x="10" y="1658">    │ │ │   └── is-arrayish@0.2.1 </tspan>
<tspan x="10" y="1674">    │ │ ├── pify@2.3.0 </tspan>
<tspan x="10" y="1690">    │ │ └─┬ strip-bom@2.0.0 </tspan>
<tspan x="10" y="1706">    │ │   └── is-utf8@0.2.1 </tspan>
<tspan x="10" y="1722">    │ ├── object-assign@4.1.1 </tspan>
<tspan x="10" y="1738">    │ └── symbol@0.2.3 </tspan>
<tspan x="10" y="1754">    ├─┬ read-pkg-up@1.0.1 </tspan>
<tspan x="10" y="1770">    │ └─┬ read-pkg@1.1.0 </tspan>
<tspan x="10" y="1786">    │   ├─┬ normalize-package-data@2.3.6 </tspan>
<tspan x="10" y="1802">    │   │ ├── hosted-git-info@2.4.2 </tspan>
<tspan x="10" y="1818">    │   │ ├─┬ is-builtin-module@1.0.0 </tspan>
<tspan x="10" y="1834">    │   │ │ └── builtin-modules@1.1.1 </tspan>
<tspan x="10" y="1850">    │   │ ├── semver@5.3.0 </tspan>
<tspan x="10" y="1866">    │   │ └─┬ validate-npm-package-license@3.0.1 </tspan>
<tspan x="10" y="1882">    │   │   ├─┬ spdx-correct@1.0.2 </tspan>
<tspan x="10" y="1898">    │   │   │ └── spdx-license-ids@1.2.2 </tspan>
<tspan x="10" y="1914">    │   │   └── spdx-expression-parse@1.0.4 </tspan>
<tspan x="10" y="1930">    │   └── path-type@1.1.0 </tspan>
<tspan x="10" y="1946">    ├── require-main-filename@1.0.1 </tspan>
<tspan x="10" y="1962">    ├── set-blocking@1.0.0 </tspan>
<tspan x="10" y="1978">    ├─┬ string-width@1.0.2 </tspan>
<tspan x="10" y="1994">    │ ├── code-point-at@1.1.0 </tspan>
<tspan x="10" y="2010">    │ └─┬ is-fullwidth-code-point@1.0.0 </tspan>
<tspan x="10" y="2026">    │   └── number-is-nan@1.0.1 </tspan>
<tspan x="10" y="2042">    ├── window-size@0.2.0 </tspan>
<tspan x="10" y="2058">    ├── y18n@3.2.1 </tspan>
<tspan x="10" y="2074">    └── yargs-parser@2.4.1</tspan>
</text>
</svg>
